<svg xmlns="http://www.w3.org/2000/svg" width="220" height="56" viewBox="0 0 220 56" role="img">
<title>cp.061_to_cp.062 terrain profile</title>
<rect x="0" y="0" width="220" height="56" fill="#171b20"/>
<rect x="10.0" y="8" width="2.8" height="34" fill="#c6e86b" opacity="0.28"/>
<rect x="12.8" y="8" width="3.0" height="34" fill="#c6e86b" opacity="0.28"/>
<rect x="15.8" y="8" width="2.8" height="34" fill="#c6e86b" opacity="0.28"/>
<rect x="18.6" y="8" width="2.7" height="34" fill="#c6e86b" opacity="0.28"/>
<rect x="21.4" y="8" width="3.9" height="34" fill="#f2d84b" opacity="0.28"/>
<rect x="25.3" y="8" width="2.8" height="34" fill="#e46e3f" opacity="0.28"/>
<rect x="28.1" y="8" width="3.0" height="34" fill="#f6a044" opacity="0.28"/>
<rect x="31.2" y="8" width="3.2" height="34" fill="#f2d84b" opacity="0.28"/>
<rect x="34.4" y="8" width="3.2" height="34" fill="#9ee6a0" opacity="0.28"/>
<rect x="37.5" y="8" width="3.1" height="34" fill="#9ee6a0" opacity="0.28"/>
<rect x="40.6" y="8" width="3.6" height="34" fill="#9ee6a0" opacity="0.28"/>
<rect x="44.2" y="8" width="2.7" height="34" fill="#9ee6a0" opacity="0.28"/>
<rect x="46.9" y="8" width="3.0" height="34" fill="#9ee6a0" opacity="0.28"/>
<rect x="49.9" y="8" width="2.7" height="34" fill="#c6e86b" opacity="0.28"/>
<rect x="52.6" y="8" width="2.7" height="34" fill="#c6e86b" opacity="0.28"/>
<rect x="55.2" y="8" width="2.7" height="34" fill="#f2d84b" opacity="0.28"/>
<rect x="58.0" y="8" width="2.9" height="34" fill="#9ee6a0" opacity="0.28"/>
<rect x="60.9" y="8" width="2.9" height="34" fill="#9ee6a0" opacity="0.28"/>
<rect x="63.8" y="8" width="2.9" height="34" fill="#f2d84b" opacity="0.28"/>
<rect x="66.6" y="8" width="4.0" height="34" fill="#9ee6a0" opacity="0.28"/>
<rect x="70.6" y="8" width="3.2" height="34" fill="#f2d84b" opacity="0.28"/>
<rect x="73.8" y="8" width="3.2" height="34" fill="#c6e86b" opacity="0.28"/>
<rect x="77.0" y="8" width="3.4" height="34" fill="#f2d84b" opacity="0.28"/>
<rect x="80.4" y="8" width="3.0" height="34" fill="#c6e86b" opacity="0.28"/>
<rect x="83.4" y="8" width="2.7" height="34" fill="#9ee6a0" opacity="0.28"/>
<rect x="86.0" y="8" width="3.0" height="34" fill="#9ee6a0" opacity="0.28"/>
<rect x="89.0" y="8" width="3.6" height="34" fill="#9ee6a0" opacity="0.28"/>
<rect x="92.7" y="8" width="3.0" height="34" fill="#c6e86b" opacity="0.28"/>
<rect x="95.6" y="8" width="2.9" height="34" fill="#9ee6a0" opacity="0.28"/>
<rect x="98.5" y="8" width="3.7" height="34" fill="#9ee6a0" opacity="0.28"/>
<rect x="102.2" y="8" width="3.1" height="34" fill="#9ee6a0" opacity="0.28"/>
<rect x="105.4" y="8" width="2.7" height="34" fill="#9ee6a0" opacity="0.28"/>
<rect x="108.1" y="8" width="3.2" height="34" fill="#c6e86b" opacity="0.28"/>
<rect x="111.2" y="8" width="3.5" height="34" fill="#f2d84b" opacity="0.28"/>
<rect x="114.7" y="8" width="2.7" height="34" fill="#c6e86b" opacity="0.28"/>
<rect x="117.4" y="8" width="3.6" height="34" fill="#9ee6a0" opacity="0.28"/>
<rect x="121.0" y="8" width="3.5" height="34" fill="#9ee6a0" opacity="0.28"/>
<rect x="124.4" y="8" width="2.7" height="34" fill="#f2d84b" opacity="0.28"/>
<rect x="127.1" y="8" width="2.9" height="34" fill="#e46e3f" opacity="0.28"/>
<rect x="130.0" y="8" width="3.2" height="34" fill="#f2d84b" opacity="0.28"/>
<rect x="133.2" y="8" width="3.0" height="34" fill="#f2d84b" opacity="0.28"/>
<rect x="136.2" y="8" width="2.9" height="34" fill="#f2d84b" opacity="0.28"/>
<rect x="139.1" y="8" width="3.4" height="34" fill="#f2d84b" opacity="0.28"/>
<rect x="142.5" y="8" width="2.8" height="34" fill="#f2d84b" opacity="0.28"/>
<rect x="145.3" y="8" width="2.7" height="34" fill="#f2d84b" opacity="0.28"/>
<rect x="148.0" y="8" width="3.1" height="34" fill="#9ee6a0" opacity="0.28"/>
<rect x="151.2" y="8" width="3.6" height="34" fill="#9ee6a0" opacity="0.28"/>
<rect x="154.7" y="8" width="2.9" height="34" fill="#9ee6a0" opacity="0.28"/>
<rect x="157.7" y="8" width="2.7" height="34" fill="#9ee6a0" opacity="0.28"/>
<rect x="160.3" y="8" width="2.8" height="34" fill="#9ee6a0" opacity="0.28"/>
<rect x="163.1" y="8" width="3.2" height="34" fill="#9ee6a0" opacity="0.28"/>
<rect x="166.3" y="8" width="3.3" height="34" fill="#c6e86b" opacity="0.28"/>
<rect x="169.6" y="8" width="3.4" height="34" fill="#9ee6a0" opacity="0.28"/>
<rect x="173.0" y="8" width="2.9" height="34" fill="#e46e3f" opacity="0.28"/>
<rect x="175.9" y="8" width="2.8" height="34" fill="#9ee6a0" opacity="0.28"/>
<rect x="178.8" y="8" width="4.0" height="34" fill="#9ee6a0" opacity="0.28"/>
<rect x="182.8" y="8" width="3.2" height="34" fill="#c6e86b" opacity="0.28"/>
<rect x="185.9" y="8" width="2.9" height="34" fill="#d84b4b" opacity="0.28"/>
<rect x="188.9" y="8" width="3.1" height="34" fill="#f6a044" opacity="0.28"/>
<rect x="192.0" y="8" width="3.4" height="34" fill="#9ee6a0" opacity="0.28"/>
<rect x="195.3" y="8" width="3.5" height="34" fill="#c6e86b" opacity="0.28"/>
<rect x="198.8" y="8" width="2.7" height="34" fill="#e46e3f" opacity="0.28"/>
<rect x="201.5" y="8" width="2.7" height="34" fill="#9ee6a0" opacity="0.28"/>
<rect x="204.2" y="8" width="3.2" height="34" fill="#9ee6a0" opacity="0.28"/>
<rect x="207.5" y="8" width="2.5" height="34" fill="#9ee6a0" opacity="0.28"/>
<polyline points="10.0,8.0 12.8,8.7 15.8,8.8 18.6,9.6 21.4,9.9 25.3,10.6 28.1,11.6 31.2,12.4 34.4,13.4 37.5,14.2 40.6,15.4 44.2,15.7 46.9,16.4 49.9,16.5 52.6,16.9 55.2,17.1 58.0,18.9 60.9,19.5 63.8,19.9 66.6,20.3 70.6,20.8 73.8,21.1 77.0,21.8 80.4,22.3 83.4,23.0 86.0,23.3 89.0,23.6 92.7,23.7 95.6,23.2 98.5,22.9 102.2,22.2 105.4,21.6 108.1,21.6 111.2,21.8 114.7,22.1 117.4,21.9 121.0,20.6 124.4,20.5 127.1,21.3 130.0,22.1 133.2,24.0 136.2,24.9 139.1,25.6 142.5,25.6 145.3,26.4 148.0,27.3 151.2,27.9 154.7,28.1 157.7,28.5 160.3,28.5 163.1,28.6 166.3,29.4 169.6,30.0 173.0,31.1 175.9,31.6 178.8,33.6 182.8,34.0 185.9,35.5 188.9,36.1 192.0,37.5 195.3,39.0 198.8,39.1 201.5,40.3 204.2,41.3 207.5,41.9 210.0,42.0" fill="none" stroke="#f4f7fb" stroke-width="2" stroke-linejoin="round" stroke-linecap="round"/>
<text x="10" y="52" fill="#9aa4b2" font-size="9">severe</text>
<text x="210" y="52" text-anchor="end" fill="#9aa4b2" font-size="9">2067-2381m</text>
</svg>
