<svg xmlns="http://www.w3.org/2000/svg" width="220" height="56" viewBox="0 0 220 56" role="img">
<title>cp.053_to_cp.054 terrain profile</title>
<rect x="0" y="0" width="220" height="56" fill="#171b20"/>
<rect x="10.0" y="8" width="3.4" height="34" fill="#e46e3f" opacity="0.28"/>
<rect x="13.4" y="8" width="3.4" height="34" fill="#c6e86b" opacity="0.28"/>
<rect x="16.8" y="8" width="3.0" height="34" fill="#9ee6a0" opacity="0.28"/>
<rect x="19.8" y="8" width="2.8" height="34" fill="#c6e86b" opacity="0.28"/>
<rect x="22.5" y="8" width="2.9" height="34" fill="#9ee6a0" opacity="0.28"/>
<rect x="25.4" y="8" width="3.0" height="34" fill="#e46e3f" opacity="0.28"/>
<rect x="28.4" y="8" width="3.0" height="34" fill="#f2d84b" opacity="0.28"/>
<rect x="31.4" y="8" width="3.2" height="34" fill="#9ee6a0" opacity="0.28"/>
<rect x="34.6" y="8" width="3.2" height="34" fill="#c6e86b" opacity="0.28"/>
<rect x="37.7" y="8" width="3.6" height="34" fill="#9ee6a0" opacity="0.28"/>
<rect x="41.3" y="8" width="2.9" height="34" fill="#9ee6a0" opacity="0.28"/>
<rect x="44.2" y="8" width="3.1" height="34" fill="#d84b4b" opacity="0.28"/>
<rect x="47.3" y="8" width="3.3" height="34" fill="#9ee6a0" opacity="0.28"/>
<rect x="50.6" y="8" width="3.1" height="34" fill="#9ee6a0" opacity="0.28"/>
<rect x="53.7" y="8" width="3.1" height="34" fill="#9ee6a0" opacity="0.28"/>
<rect x="56.8" y="8" width="3.1" height="34" fill="#9ee6a0" opacity="0.28"/>
<rect x="59.9" y="8" width="2.7" height="34" fill="#f2d84b" opacity="0.28"/>
<rect x="62.7" y="8" width="3.2" height="34" fill="#e46e3f" opacity="0.28"/>
<rect x="65.9" y="8" width="3.2" height="34" fill="#9ee6a0" opacity="0.28"/>
<rect x="69.1" y="8" width="2.9" height="34" fill="#e46e3f" opacity="0.28"/>
<rect x="72.0" y="8" width="3.0" height="34" fill="#f2d84b" opacity="0.28"/>
<rect x="75.0" y="8" width="3.6" height="34" fill="#9ee6a0" opacity="0.28"/>
<rect x="78.6" y="8" width="2.8" height="34" fill="#9ee6a0" opacity="0.28"/>
<rect x="81.4" y="8" width="3.0" height="34" fill="#9ee6a0" opacity="0.28"/>
<rect x="84.4" y="8" width="3.6" height="34" fill="#c6e86b" opacity="0.28"/>
<rect x="87.9" y="8" width="2.9" height="34" fill="#f2d84b" opacity="0.28"/>
<rect x="90.9" y="8" width="2.7" height="34" fill="#9ee6a0" opacity="0.28"/>
<rect x="93.5" y="8" width="3.4" height="34" fill="#9ee6a0" opacity="0.28"/>
<rect x="96.9" y="8" width="3.2" height="34" fill="#f2d84b" opacity="0.28"/>
<rect x="100.0" y="8" width="2.9" height="34" fill="#c6e86b" opacity="0.28"/>
<rect x="103.0" y="8" width="3.9" height="34" fill="#f2d84b" opacity="0.28"/>
<rect x="106.9" y="8" width="3.1" height="34" fill="#9ee6a0" opacity="0.28"/>
<rect x="110.0" y="8" width="3.3" height="34" fill="#c6e86b" opacity="0.28"/>
<rect x="113.2" y="8" width="4.0" height="34" fill="#9ee6a0" opacity="0.28"/>
<rect x="117.2" y="8" width="3.4" height="34" fill="#9ee6a0" opacity="0.28"/>
<rect x="120.7" y="8" width="2.7" height="34" fill="#9ee6a0" opacity="0.28"/>
<rect x="123.4" y="8" width="3.3" height="34" fill="#9ee6a0" opacity="0.28"/>
<rect x="126.7" y="8" width="4.1" height="34" fill="#9ee6a0" opacity="0.28"/>
<rect x="130.7" y="8" width="3.2" height="34" fill="#9ee6a0" opacity="0.28"/>
<rect x="133.9" y="8" width="3.2" height="34" fill="#9ee6a0" opacity="0.28"/>
<rect x="137.1" y="8" width="2.9" height="34" fill="#9ee6a0" opacity="0.28"/>
<rect x="140.0" y="8" width="3.5" height="34" fill="#9ee6a0" opacity="0.28"/>
<rect x="143.6" y="8" width="2.8" height="34" fill="#9ee6a0" opacity="0.28"/>
<rect x="146.4" y="8" width="3.5" height="34" fill="#9ee6a0" opacity="0.28"/>
<rect x="149.9" y="8" width="3.4" height="34" fill="#9ee6a0" opacity="0.28"/>
<rect x="153.3" y="8" width="2.8" height="34" fill="#9ee6a0" opacity="0.28"/>
<rect x="156.1" y="8" width="2.8" height="34" fill="#9ee6a0" opacity="0.28"/>
<rect x="158.9" y="8" width="2.8" height="34" fill="#f2d84b" opacity="0.28"/>
<rect x="161.7" y="8" width="2.9" height="34" fill="#e46e3f" opacity="0.28"/>
<rect x="164.6" y="8" width="3.1" height="34" fill="#9ee6a0" opacity="0.28"/>
<rect x="167.7" y="8" width="3.0" height="34" fill="#9ee6a0" opacity="0.28"/>
<rect x="170.7" y="8" width="2.8" height="34" fill="#9ee6a0" opacity="0.28"/>
<rect x="173.5" y="8" width="2.7" height="34" fill="#9ee6a0" opacity="0.28"/>
<rect x="176.3" y="8" width="2.8" height="34" fill="#9ee6a0" opacity="0.28"/>
<rect x="179.1" y="8" width="2.8" height="34" fill="#c6e86b" opacity="0.28"/>
<rect x="181.9" y="8" width="2.7" height="34" fill="#9ee6a0" opacity="0.28"/>
<rect x="184.6" y="8" width="2.9" height="34" fill="#c6e86b" opacity="0.28"/>
<rect x="187.5" y="8" width="3.2" height="34" fill="#9ee6a0" opacity="0.28"/>
<rect x="190.7" y="8" width="3.4" height="34" fill="#9ee6a0" opacity="0.28"/>
<rect x="194.1" y="8" width="3.4" height="34" fill="#c6e86b" opacity="0.28"/>
<rect x="197.4" y="8" width="3.9" height="34" fill="#9ee6a0" opacity="0.28"/>
<rect x="201.4" y="8" width="3.2" height="34" fill="#f2d84b" opacity="0.28"/>
<rect x="204.5" y="8" width="2.7" height="34" fill="#9ee6a0" opacity="0.28"/>
<rect x="207.3" y="8" width="2.7" height="34" fill="#9ee6a0" opacity="0.28"/>
<polyline points="10.0,8.0 13.4,10.2 16.8,12.0 19.8,13.7 22.5,15.0 25.4,16.6 28.4,17.7 31.4,18.8 34.6,20.3 37.7,21.8 41.3,23.0 44.2,24.1 47.3,23.4 50.6,25.1 53.7,25.8 56.8,26.5 59.9,26.8 62.7,27.8 65.9,30.5 69.1,32.9 72.0,31.8 75.0,28.6 78.6,28.5 81.4,29.1 84.4,29.6 87.9,30.1 90.9,31.4 93.5,32.2 96.9,33.4 100.0,35.3 103.0,37.0 106.9,38.3 110.0,40.6 113.2,41.1 117.2,41.3 120.7,41.6 123.4,41.3 126.7,41.2 130.7,41.1 133.9,41.1 137.1,41.0 140.0,40.3 143.6,39.7 146.4,39.7 149.9,39.9 153.3,40.0 156.1,41.4 158.9,41.1 161.7,40.9 164.6,42.0 167.7,41.2 170.7,41.2 173.5,41.2 176.3,41.5 179.1,41.0 181.9,40.9 184.6,40.9 187.5,41.4 190.7,41.2 194.1,41.0 197.4,39.6 201.4,38.8 204.5,38.5 207.3,37.7 210.0,37.6" fill="none" stroke="#f4f7fb" stroke-width="2" stroke-linejoin="round" stroke-linecap="round"/>
<text x="10" y="52" fill="#9aa4b2" font-size="9">severe</text>
<text x="210" y="52" text-anchor="end" fill="#9aa4b2" font-size="9">2762-2917m</text>
</svg>
