<svg xmlns="http://www.w3.org/2000/svg" width="220" height="56" viewBox="0 0 220 56" role="img">
<title>cp.031_to_cp.032 terrain profile</title>
<rect x="0" y="0" width="220" height="56" fill="#171b20"/>
<rect x="10.0" y="8" width="3.5" height="34" fill="#9ee6a0" opacity="0.28"/>
<rect x="13.5" y="8" width="3.5" height="34" fill="#c6e86b" opacity="0.28"/>
<rect x="17.0" y="8" width="3.0" height="34" fill="#9ee6a0" opacity="0.28"/>
<rect x="20.0" y="8" width="3.8" height="34" fill="#9ee6a0" opacity="0.28"/>
<rect x="23.8" y="8" width="3.0" height="34" fill="#9ee6a0" opacity="0.28"/>
<rect x="26.8" y="8" width="2.8" height="34" fill="#c6e86b" opacity="0.28"/>
<rect x="29.6" y="8" width="3.1" height="34" fill="#9ee6a0" opacity="0.28"/>
<rect x="32.7" y="8" width="3.9" height="34" fill="#9ee6a0" opacity="0.28"/>
<rect x="36.6" y="8" width="2.9" height="34" fill="#9ee6a0" opacity="0.28"/>
<rect x="39.5" y="8" width="3.7" height="34" fill="#9ee6a0" opacity="0.28"/>
<rect x="43.3" y="8" width="3.9" height="34" fill="#c6e86b" opacity="0.28"/>
<rect x="47.2" y="8" width="3.4" height="34" fill="#9ee6a0" opacity="0.28"/>
<rect x="50.6" y="8" width="2.8" height="34" fill="#9ee6a0" opacity="0.28"/>
<rect x="53.4" y="8" width="3.6" height="34" fill="#9ee6a0" opacity="0.28"/>
<rect x="57.0" y="8" width="2.8" height="34" fill="#9ee6a0" opacity="0.28"/>
<rect x="59.8" y="8" width="3.4" height="34" fill="#9ee6a0" opacity="0.28"/>
<rect x="63.2" y="8" width="3.0" height="34" fill="#9ee6a0" opacity="0.28"/>
<rect x="66.2" y="8" width="3.5" height="34" fill="#9ee6a0" opacity="0.28"/>
<rect x="69.7" y="8" width="2.9" height="34" fill="#9ee6a0" opacity="0.28"/>
<rect x="72.6" y="8" width="2.9" height="34" fill="#9ee6a0" opacity="0.28"/>
<rect x="75.5" y="8" width="3.2" height="34" fill="#c6e86b" opacity="0.28"/>
<rect x="78.6" y="8" width="3.1" height="34" fill="#9ee6a0" opacity="0.28"/>
<rect x="81.7" y="8" width="3.5" height="34" fill="#9ee6a0" opacity="0.28"/>
<rect x="85.2" y="8" width="2.7" height="34" fill="#9ee6a0" opacity="0.28"/>
<rect x="87.9" y="8" width="3.5" height="34" fill="#c6e86b" opacity="0.28"/>
<rect x="91.4" y="8" width="3.6" height="34" fill="#c6e86b" opacity="0.28"/>
<rect x="95.0" y="8" width="2.8" height="34" fill="#9ee6a0" opacity="0.28"/>
<rect x="97.8" y="8" width="3.6" height="34" fill="#9ee6a0" opacity="0.28"/>
<rect x="101.4" y="8" width="3.7" height="34" fill="#9ee6a0" opacity="0.28"/>
<rect x="105.1" y="8" width="3.6" height="34" fill="#c6e86b" opacity="0.28"/>
<rect x="108.7" y="8" width="3.2" height="34" fill="#9ee6a0" opacity="0.28"/>
<rect x="111.8" y="8" width="3.0" height="34" fill="#9ee6a0" opacity="0.28"/>
<rect x="114.8" y="8" width="4.2" height="34" fill="#9ee6a0" opacity="0.28"/>
<rect x="119.1" y="8" width="2.8" height="34" fill="#9ee6a0" opacity="0.28"/>
<rect x="121.8" y="8" width="3.5" height="34" fill="#9ee6a0" opacity="0.28"/>
<rect x="125.4" y="8" width="2.7" height="34" fill="#9ee6a0" opacity="0.28"/>
<rect x="128.1" y="8" width="3.0" height="34" fill="#9ee6a0" opacity="0.28"/>
<rect x="131.1" y="8" width="2.7" height="34" fill="#c6e86b" opacity="0.28"/>
<rect x="133.8" y="8" width="4.4" height="34" fill="#c6e86b" opacity="0.28"/>
<rect x="138.3" y="8" width="3.5" height="34" fill="#9ee6a0" opacity="0.28"/>
<rect x="141.8" y="8" width="3.7" height="34" fill="#9ee6a0" opacity="0.28"/>
<rect x="145.5" y="8" width="3.3" height="34" fill="#9ee6a0" opacity="0.28"/>
<rect x="148.8" y="8" width="2.8" height="34" fill="#c6e86b" opacity="0.28"/>
<rect x="151.6" y="8" width="3.2" height="34" fill="#9ee6a0" opacity="0.28"/>
<rect x="154.8" y="8" width="2.7" height="34" fill="#9ee6a0" opacity="0.28"/>
<rect x="157.5" y="8" width="3.8" height="34" fill="#9ee6a0" opacity="0.28"/>
<rect x="161.2" y="8" width="3.0" height="34" fill="#9ee6a0" opacity="0.28"/>
<rect x="164.2" y="8" width="3.1" height="34" fill="#9ee6a0" opacity="0.28"/>
<rect x="167.3" y="8" width="3.2" height="34" fill="#9ee6a0" opacity="0.28"/>
<rect x="170.6" y="8" width="3.3" height="34" fill="#9ee6a0" opacity="0.28"/>
<rect x="173.9" y="8" width="3.7" height="34" fill="#9ee6a0" opacity="0.28"/>
<rect x="177.6" y="8" width="3.0" height="34" fill="#9ee6a0" opacity="0.28"/>
<rect x="180.5" y="8" width="4.3" height="34" fill="#9ee6a0" opacity="0.28"/>
<rect x="184.8" y="8" width="3.0" height="34" fill="#9ee6a0" opacity="0.28"/>
<rect x="187.8" y="8" width="3.2" height="34" fill="#9ee6a0" opacity="0.28"/>
<rect x="191.0" y="8" width="3.3" height="34" fill="#9ee6a0" opacity="0.28"/>
<rect x="194.2" y="8" width="3.1" height="34" fill="#c6e86b" opacity="0.28"/>
<rect x="197.4" y="8" width="3.2" height="34" fill="#c6e86b" opacity="0.28"/>
<rect x="200.5" y="8" width="2.7" height="34" fill="#c6e86b" opacity="0.28"/>
<rect x="203.2" y="8" width="2.8" height="34" fill="#c6e86b" opacity="0.28"/>
<rect x="206.1" y="8" width="3.1" height="34" fill="#9ee6a0" opacity="0.28"/>
<rect x="209.1" y="8" width="1.0" height="34" fill="#9ee6a0" opacity="0.28"/>
<polyline points="10.0,42.0 13.5,41.8 17.0,42.0 20.0,41.2 23.8,41.3 26.8,39.9 29.6,38.3 32.7,38.0 36.6,37.4 39.5,37.3 43.3,36.8 47.2,36.0 50.6,35.2 53.4,34.1 57.0,33.0 59.8,32.1 63.2,30.4 66.2,29.1 69.7,28.1 72.6,28.0 75.5,27.5 78.6,26.5 81.7,25.3 85.2,24.6 87.9,23.9 91.4,23.4 95.0,22.4 97.8,20.7 101.4,19.7 105.1,19.1 108.7,18.1 111.8,17.4 114.8,17.0 119.1,17.2 121.8,17.3 125.4,16.9 128.1,17.2 131.1,16.6 133.8,16.1 138.3,14.6 141.8,12.7 145.5,12.2 148.8,11.5 151.6,12.5 154.8,11.4 157.5,11.1 161.2,10.6 164.2,11.6 167.3,12.2 170.6,12.0 173.9,11.2 177.6,10.8 180.5,10.9 184.8,11.9 187.8,12.4 191.0,12.5 194.2,12.4 197.4,12.0 200.5,12.2 203.2,9.9 206.1,8.9 209.1,8.0 210.0,8.3" fill="none" stroke="#f4f7fb" stroke-width="2" stroke-linejoin="round" stroke-linecap="round"/>
<text x="10" y="52" fill="#9aa4b2" font-size="9">normal</text>
<text x="210" y="52" text-anchor="end" fill="#9aa4b2" font-size="9">2298-2363m</text>
</svg>
