<svg xmlns="http://www.w3.org/2000/svg" width="220" height="56" viewBox="0 0 220 56" role="img">
<title>cp.028_to_cp.029 terrain profile</title>
<rect x="0" y="0" width="220" height="56" fill="#171b20"/>
<rect x="10.0" y="8" width="4.3" height="34" fill="#9ee6a0" opacity="0.28"/>
<rect x="14.3" y="8" width="5.6" height="34" fill="#9ee6a0" opacity="0.28"/>
<rect x="20.0" y="8" width="4.5" height="34" fill="#9ee6a0" opacity="0.28"/>
<rect x="24.5" y="8" width="3.0" height="34" fill="#9ee6a0" opacity="0.28"/>
<rect x="27.5" y="8" width="4.5" height="34" fill="#9ee6a0" opacity="0.28"/>
<rect x="32.0" y="8" width="4.1" height="34" fill="#9ee6a0" opacity="0.28"/>
<rect x="36.2" y="8" width="3.9" height="34" fill="#9ee6a0" opacity="0.28"/>
<rect x="40.1" y="8" width="5.4" height="34" fill="#c6e86b" opacity="0.28"/>
<rect x="45.5" y="8" width="6.3" height="34" fill="#9ee6a0" opacity="0.28"/>
<rect x="51.8" y="8" width="4.4" height="34" fill="#9ee6a0" opacity="0.28"/>
<rect x="56.2" y="8" width="5.1" height="34" fill="#9ee6a0" opacity="0.28"/>
<rect x="61.2" y="8" width="5.0" height="34" fill="#9ee6a0" opacity="0.28"/>
<rect x="66.2" y="8" width="4.3" height="34" fill="#9ee6a0" opacity="0.28"/>
<rect x="70.5" y="8" width="2.7" height="34" fill="#9ee6a0" opacity="0.28"/>
<rect x="73.2" y="8" width="3.1" height="34" fill="#9ee6a0" opacity="0.28"/>
<rect x="76.3" y="8" width="3.0" height="34" fill="#9ee6a0" opacity="0.28"/>
<rect x="79.3" y="8" width="3.7" height="34" fill="#9ee6a0" opacity="0.28"/>
<rect x="83.0" y="8" width="3.7" height="34" fill="#c6e86b" opacity="0.28"/>
<rect x="86.7" y="8" width="3.5" height="34" fill="#9ee6a0" opacity="0.28"/>
<rect x="90.2" y="8" width="3.0" height="34" fill="#9ee6a0" opacity="0.28"/>
<rect x="93.2" y="8" width="5.5" height="34" fill="#9ee6a0" opacity="0.28"/>
<rect x="98.6" y="8" width="3.7" height="34" fill="#9ee6a0" opacity="0.28"/>
<rect x="102.3" y="8" width="4.2" height="34" fill="#9ee6a0" opacity="0.28"/>
<rect x="106.5" y="8" width="4.5" height="34" fill="#9ee6a0" opacity="0.28"/>
<rect x="110.9" y="8" width="2.7" height="34" fill="#9ee6a0" opacity="0.28"/>
<rect x="113.6" y="8" width="3.4" height="34" fill="#9ee6a0" opacity="0.28"/>
<rect x="117.0" y="8" width="3.5" height="34" fill="#c6e86b" opacity="0.28"/>
<rect x="120.5" y="8" width="5.0" height="34" fill="#9ee6a0" opacity="0.28"/>
<rect x="125.5" y="8" width="5.1" height="34" fill="#9ee6a0" opacity="0.28"/>
<rect x="130.6" y="8" width="4.8" height="34" fill="#9ee6a0" opacity="0.28"/>
<rect x="135.4" y="8" width="5.1" height="34" fill="#9ee6a0" opacity="0.28"/>
<rect x="140.5" y="8" width="5.2" height="34" fill="#9ee6a0" opacity="0.28"/>
<rect x="145.7" y="8" width="3.6" height="34" fill="#9ee6a0" opacity="0.28"/>
<rect x="149.3" y="8" width="7.2" height="34" fill="#9ee6a0" opacity="0.28"/>
<rect x="156.5" y="8" width="3.1" height="34" fill="#9ee6a0" opacity="0.28"/>
<rect x="159.6" y="8" width="3.1" height="34" fill="#9ee6a0" opacity="0.28"/>
<rect x="162.7" y="8" width="3.0" height="34" fill="#c6e86b" opacity="0.28"/>
<rect x="165.7" y="8" width="3.0" height="34" fill="#9ee6a0" opacity="0.28"/>
<rect x="168.7" y="8" width="3.3" height="34" fill="#c6e86b" opacity="0.28"/>
<rect x="172.0" y="8" width="2.7" height="34" fill="#9ee6a0" opacity="0.28"/>
<rect x="174.7" y="8" width="4.1" height="34" fill="#c6e86b" opacity="0.28"/>
<rect x="178.8" y="8" width="2.7" height="34" fill="#f2d84b" opacity="0.28"/>
<rect x="181.5" y="8" width="3.4" height="34" fill="#c6e86b" opacity="0.28"/>
<rect x="184.9" y="8" width="3.6" height="34" fill="#9ee6a0" opacity="0.28"/>
<rect x="188.6" y="8" width="3.6" height="34" fill="#9ee6a0" opacity="0.28"/>
<rect x="192.2" y="8" width="3.0" height="34" fill="#9ee6a0" opacity="0.28"/>
<rect x="195.2" y="8" width="2.8" height="34" fill="#9ee6a0" opacity="0.28"/>
<rect x="198.0" y="8" width="2.7" height="34" fill="#c6e86b" opacity="0.28"/>
<rect x="200.7" y="8" width="3.6" height="34" fill="#c6e86b" opacity="0.28"/>
<rect x="204.3" y="8" width="3.1" height="34" fill="#c6e86b" opacity="0.28"/>
<rect x="207.4" y="8" width="2.6" height="34" fill="#c6e86b" opacity="0.28"/>
<polyline points="10.0,42.0 14.3,41.3 20.0,41.1 24.5,40.2 27.5,39.7 32.0,39.5 36.2,39.1 40.1,38.6 45.5,38.2 51.8,37.1 56.2,36.7 61.2,35.7 66.2,34.9 70.5,34.3 73.2,33.5 76.3,33.0 79.3,32.4 83.0,31.4 86.7,30.8 90.2,30.1 93.2,29.6 98.6,28.9 102.3,28.1 106.5,27.9 110.9,27.5 113.6,27.5 117.0,27.2 120.5,26.4 125.5,25.6 130.6,25.2 135.4,24.5 140.5,24.0 145.7,23.6 149.3,22.9 156.5,21.9 159.6,21.4 162.7,21.1 165.7,20.9 168.7,20.7 172.0,20.9 174.7,20.3 178.8,14.9 181.5,14.8 184.9,14.1 188.6,13.4 192.2,13.0 195.2,12.2 198.0,11.4 200.7,10.7 204.3,9.8 207.4,8.7 210.0,8.0" fill="none" stroke="#f4f7fb" stroke-width="2" stroke-linejoin="round" stroke-linecap="round"/>
<text x="10" y="52" fill="#9aa4b2" font-size="9">watch</text>
<text x="210" y="52" text-anchor="end" fill="#9aa4b2" font-size="9">1839-2052m</text>
</svg>
