<svg xmlns="http://www.w3.org/2000/svg" width="220" height="56" viewBox="0 0 220 56" role="img">
<title>cp.052_to_cp.053 terrain profile</title>
<rect x="0" y="0" width="220" height="56" fill="#171b20"/>
<rect x="10.0" y="8" width="4.1" height="34" fill="#9ee6a0" opacity="0.28"/>
<rect x="14.1" y="8" width="2.8" height="34" fill="#9ee6a0" opacity="0.28"/>
<rect x="16.9" y="8" width="3.2" height="34" fill="#f6a044" opacity="0.28"/>
<rect x="20.0" y="8" width="3.0" height="34" fill="#9ee6a0" opacity="0.28"/>
<rect x="23.1" y="8" width="3.6" height="34" fill="#e46e3f" opacity="0.28"/>
<rect x="26.7" y="8" width="3.6" height="34" fill="#c6e86b" opacity="0.28"/>
<rect x="30.2" y="8" width="2.9" height="34" fill="#9ee6a0" opacity="0.28"/>
<rect x="33.2" y="8" width="3.4" height="34" fill="#9ee6a0" opacity="0.28"/>
<rect x="36.5" y="8" width="2.8" height="34" fill="#f2d84b" opacity="0.28"/>
<rect x="39.4" y="8" width="4.3" height="34" fill="#c6e86b" opacity="0.28"/>
<rect x="43.7" y="8" width="3.7" height="34" fill="#f6a044" opacity="0.28"/>
<rect x="47.4" y="8" width="3.2" height="34" fill="#c6e86b" opacity="0.28"/>
<rect x="50.6" y="8" width="3.8" height="34" fill="#f2d84b" opacity="0.28"/>
<rect x="54.4" y="8" width="2.7" height="34" fill="#c6e86b" opacity="0.28"/>
<rect x="57.1" y="8" width="3.2" height="34" fill="#9ee6a0" opacity="0.28"/>
<rect x="60.3" y="8" width="3.6" height="34" fill="#9ee6a0" opacity="0.28"/>
<rect x="63.9" y="8" width="2.8" height="34" fill="#f2d84b" opacity="0.28"/>
<rect x="66.7" y="8" width="2.7" height="34" fill="#9ee6a0" opacity="0.28"/>
<rect x="69.4" y="8" width="2.8" height="34" fill="#9ee6a0" opacity="0.28"/>
<rect x="72.2" y="8" width="3.3" height="34" fill="#c6e86b" opacity="0.28"/>
<rect x="75.6" y="8" width="3.0" height="34" fill="#c6e86b" opacity="0.28"/>
<rect x="78.6" y="8" width="2.9" height="34" fill="#9ee6a0" opacity="0.28"/>
<rect x="81.5" y="8" width="2.7" height="34" fill="#9ee6a0" opacity="0.28"/>
<rect x="84.2" y="8" width="3.2" height="34" fill="#9ee6a0" opacity="0.28"/>
<rect x="87.4" y="8" width="3.1" height="34" fill="#9ee6a0" opacity="0.28"/>
<rect x="90.5" y="8" width="3.7" height="34" fill="#9ee6a0" opacity="0.28"/>
<rect x="94.2" y="8" width="3.7" height="34" fill="#9ee6a0" opacity="0.28"/>
<rect x="97.9" y="8" width="3.8" height="34" fill="#9ee6a0" opacity="0.28"/>
<rect x="101.7" y="8" width="2.8" height="34" fill="#f2d84b" opacity="0.28"/>
<rect x="104.5" y="8" width="3.1" height="34" fill="#9ee6a0" opacity="0.28"/>
<rect x="107.6" y="8" width="3.0" height="34" fill="#d84b4b" opacity="0.28"/>
<rect x="110.6" y="8" width="3.8" height="34" fill="#9ee6a0" opacity="0.28"/>
<rect x="114.5" y="8" width="3.2" height="34" fill="#c6e86b" opacity="0.28"/>
<rect x="117.7" y="8" width="2.8" height="34" fill="#9ee6a0" opacity="0.28"/>
<rect x="120.5" y="8" width="3.6" height="34" fill="#c6e86b" opacity="0.28"/>
<rect x="124.1" y="8" width="3.2" height="34" fill="#9ee6a0" opacity="0.28"/>
<rect x="127.3" y="8" width="4.2" height="34" fill="#c6e86b" opacity="0.28"/>
<rect x="131.5" y="8" width="3.6" height="34" fill="#c6e86b" opacity="0.28"/>
<rect x="135.1" y="8" width="2.8" height="34" fill="#c6e86b" opacity="0.28"/>
<rect x="137.8" y="8" width="2.8" height="34" fill="#9ee6a0" opacity="0.28"/>
<rect x="140.7" y="8" width="3.4" height="34" fill="#c6e86b" opacity="0.28"/>
<rect x="144.0" y="8" width="3.1" height="34" fill="#9ee6a0" opacity="0.28"/>
<rect x="147.2" y="8" width="3.0" height="34" fill="#9ee6a0" opacity="0.28"/>
<rect x="150.2" y="8" width="3.1" height="34" fill="#c6e86b" opacity="0.28"/>
<rect x="153.3" y="8" width="3.5" height="34" fill="#e46e3f" opacity="0.28"/>
<rect x="156.8" y="8" width="3.0" height="34" fill="#d84b4b" opacity="0.28"/>
<rect x="159.8" y="8" width="3.2" height="34" fill="#f2d84b" opacity="0.28"/>
<rect x="163.0" y="8" width="3.5" height="34" fill="#d84b4b" opacity="0.28"/>
<rect x="166.6" y="8" width="2.9" height="34" fill="#c6e86b" opacity="0.28"/>
<rect x="169.4" y="8" width="3.2" height="34" fill="#f2d84b" opacity="0.28"/>
<rect x="172.6" y="8" width="2.8" height="34" fill="#f6a044" opacity="0.28"/>
<rect x="175.4" y="8" width="3.3" height="34" fill="#e46e3f" opacity="0.28"/>
<rect x="178.7" y="8" width="3.0" height="34" fill="#f2d84b" opacity="0.28"/>
<rect x="181.7" y="8" width="3.9" height="34" fill="#9ee6a0" opacity="0.28"/>
<rect x="185.6" y="8" width="3.1" height="34" fill="#9ee6a0" opacity="0.28"/>
<rect x="188.7" y="8" width="2.9" height="34" fill="#f2d84b" opacity="0.28"/>
<rect x="191.6" y="8" width="3.3" height="34" fill="#d84b4b" opacity="0.28"/>
<rect x="194.9" y="8" width="3.2" height="34" fill="#c6e86b" opacity="0.28"/>
<rect x="198.2" y="8" width="4.2" height="34" fill="#9ee6a0" opacity="0.28"/>
<rect x="202.3" y="8" width="2.9" height="34" fill="#c6e86b" opacity="0.28"/>
<rect x="205.2" y="8" width="3.2" height="34" fill="#f2d84b" opacity="0.28"/>
<rect x="208.4" y="8" width="1.6" height="34" fill="#c6e86b" opacity="0.28"/>
<polyline points="10.0,10.4 14.1,10.7 16.9,11.0 20.0,9.8 23.1,8.0 26.7,9.5 30.2,11.0 33.2,11.6 36.5,12.1 39.4,12.2 43.7,13.0 47.4,13.6 50.6,13.9 54.4,13.7 57.1,15.8 60.3,17.1 63.9,16.8 66.7,15.9 69.4,15.4 72.2,16.4 75.6,17.2 78.6,17.6 81.5,17.3 84.2,16.8 87.4,15.6 90.5,14.7 94.2,14.2 97.9,14.1 101.7,13.9 104.5,13.8 107.6,13.2 110.6,12.2 114.5,12.5 117.7,12.4 120.5,13.3 124.1,13.4 127.3,12.5 131.5,13.2 135.1,13.5 137.8,13.8 140.7,13.9 144.0,14.6 147.2,15.1 150.2,15.4 153.3,16.0 156.8,16.5 159.8,18.1 163.0,19.6 166.6,23.3 169.4,24.7 172.6,25.6 175.4,27.3 178.7,28.6 181.7,30.6 185.6,32.0 188.7,32.8 191.6,34.5 194.9,36.0 198.2,38.6 202.3,40.2 205.2,40.8 208.4,41.2 210.0,42.0" fill="none" stroke="#f4f7fb" stroke-width="2" stroke-linejoin="round" stroke-linecap="round"/>
<text x="10" y="52" fill="#9aa4b2" font-size="9">severe</text>
<text x="210" y="52" text-anchor="end" fill="#9aa4b2" font-size="9">2917-3103m</text>
</svg>
