<svg xmlns="http://www.w3.org/2000/svg" width="220" height="56" viewBox="0 0 220 56" role="img">
<title>cp.064_to_cp.065 terrain profile</title>
<rect x="0" y="0" width="220" height="56" fill="#171b20"/>
<rect x="10.0" y="8" width="3.4" height="34" fill="#9ee6a0" opacity="0.28"/>
<rect x="13.4" y="8" width="3.3" height="34" fill="#9ee6a0" opacity="0.28"/>
<rect x="16.7" y="8" width="2.9" height="34" fill="#c6e86b" opacity="0.28"/>
<rect x="19.6" y="8" width="2.7" height="34" fill="#c6e86b" opacity="0.28"/>
<rect x="22.3" y="8" width="3.7" height="34" fill="#f2d84b" opacity="0.28"/>
<rect x="26.0" y="8" width="3.2" height="34" fill="#9ee6a0" opacity="0.28"/>
<rect x="29.3" y="8" width="3.1" height="34" fill="#f6a044" opacity="0.28"/>
<rect x="32.3" y="8" width="2.7" height="34" fill="#d84b4b" opacity="0.28"/>
<rect x="35.0" y="8" width="3.5" height="34" fill="#c6e86b" opacity="0.28"/>
<rect x="38.5" y="8" width="3.1" height="34" fill="#9ee6a0" opacity="0.28"/>
<rect x="41.6" y="8" width="3.5" height="34" fill="#9ee6a0" opacity="0.28"/>
<rect x="45.2" y="8" width="3.1" height="34" fill="#9ee6a0" opacity="0.28"/>
<rect x="48.2" y="8" width="3.2" height="34" fill="#9ee6a0" opacity="0.28"/>
<rect x="51.5" y="8" width="2.7" height="34" fill="#9ee6a0" opacity="0.28"/>
<rect x="54.2" y="8" width="3.4" height="34" fill="#9ee6a0" opacity="0.28"/>
<rect x="57.6" y="8" width="2.8" height="34" fill="#9ee6a0" opacity="0.28"/>
<rect x="60.4" y="8" width="3.1" height="34" fill="#9ee6a0" opacity="0.28"/>
<rect x="63.5" y="8" width="4.4" height="34" fill="#9ee6a0" opacity="0.28"/>
<rect x="67.8" y="8" width="3.0" height="34" fill="#c6e86b" opacity="0.28"/>
<rect x="70.9" y="8" width="3.0" height="34" fill="#9ee6a0" opacity="0.28"/>
<rect x="73.8" y="8" width="3.6" height="34" fill="#c6e86b" opacity="0.28"/>
<rect x="77.4" y="8" width="3.6" height="34" fill="#9ee6a0" opacity="0.28"/>
<rect x="81.0" y="8" width="2.8" height="34" fill="#9ee6a0" opacity="0.28"/>
<rect x="83.8" y="8" width="2.9" height="34" fill="#9ee6a0" opacity="0.28"/>
<rect x="86.7" y="8" width="3.1" height="34" fill="#c6e86b" opacity="0.28"/>
<rect x="89.8" y="8" width="2.7" height="34" fill="#c6e86b" opacity="0.28"/>
<rect x="92.5" y="8" width="2.9" height="34" fill="#9ee6a0" opacity="0.28"/>
<rect x="95.4" y="8" width="2.8" height="34" fill="#9ee6a0" opacity="0.28"/>
<rect x="98.2" y="8" width="2.8" height="34" fill="#9ee6a0" opacity="0.28"/>
<rect x="101.1" y="8" width="2.7" height="34" fill="#9ee6a0" opacity="0.28"/>
<rect x="103.7" y="8" width="2.9" height="34" fill="#9ee6a0" opacity="0.28"/>
<rect x="106.7" y="8" width="3.2" height="34" fill="#9ee6a0" opacity="0.28"/>
<rect x="109.9" y="8" width="3.1" height="34" fill="#9ee6a0" opacity="0.28"/>
<rect x="113.0" y="8" width="2.9" height="34" fill="#c6e86b" opacity="0.28"/>
<rect x="115.9" y="8" width="3.0" height="34" fill="#9ee6a0" opacity="0.28"/>
<rect x="118.9" y="8" width="2.8" height="34" fill="#9ee6a0" opacity="0.28"/>
<rect x="121.7" y="8" width="3.8" height="34" fill="#9ee6a0" opacity="0.28"/>
<rect x="125.5" y="8" width="3.8" height="34" fill="#9ee6a0" opacity="0.28"/>
<rect x="129.2" y="8" width="3.7" height="34" fill="#9ee6a0" opacity="0.28"/>
<rect x="133.0" y="8" width="4.1" height="34" fill="#9ee6a0" opacity="0.28"/>
<rect x="137.0" y="8" width="3.0" height="34" fill="#9ee6a0" opacity="0.28"/>
<rect x="140.0" y="8" width="2.9" height="34" fill="#9ee6a0" opacity="0.28"/>
<rect x="142.9" y="8" width="2.8" height="34" fill="#9ee6a0" opacity="0.28"/>
<rect x="145.7" y="8" width="3.9" height="34" fill="#9ee6a0" opacity="0.28"/>
<rect x="149.6" y="8" width="3.6" height="34" fill="#9ee6a0" opacity="0.28"/>
<rect x="153.2" y="8" width="3.2" height="34" fill="#9ee6a0" opacity="0.28"/>
<rect x="156.4" y="8" width="3.7" height="34" fill="#9ee6a0" opacity="0.28"/>
<rect x="160.1" y="8" width="3.3" height="34" fill="#9ee6a0" opacity="0.28"/>
<rect x="163.4" y="8" width="3.4" height="34" fill="#9ee6a0" opacity="0.28"/>
<rect x="166.8" y="8" width="3.4" height="34" fill="#9ee6a0" opacity="0.28"/>
<rect x="170.2" y="8" width="3.5" height="34" fill="#9ee6a0" opacity="0.28"/>
<rect x="173.7" y="8" width="3.6" height="34" fill="#9ee6a0" opacity="0.28"/>
<rect x="177.3" y="8" width="2.9" height="34" fill="#9ee6a0" opacity="0.28"/>
<rect x="180.2" y="8" width="2.7" height="34" fill="#9ee6a0" opacity="0.28"/>
<rect x="182.9" y="8" width="3.4" height="34" fill="#9ee6a0" opacity="0.28"/>
<rect x="186.2" y="8" width="3.2" height="34" fill="#9ee6a0" opacity="0.28"/>
<rect x="189.4" y="8" width="3.1" height="34" fill="#9ee6a0" opacity="0.28"/>
<rect x="192.5" y="8" width="2.8" height="34" fill="#9ee6a0" opacity="0.28"/>
<rect x="195.3" y="8" width="3.0" height="34" fill="#9ee6a0" opacity="0.28"/>
<rect x="198.3" y="8" width="3.3" height="34" fill="#c6e86b" opacity="0.28"/>
<rect x="201.6" y="8" width="3.7" height="34" fill="#9ee6a0" opacity="0.28"/>
<rect x="205.3" y="8" width="2.7" height="34" fill="#9ee6a0" opacity="0.28"/>
<rect x="208.0" y="8" width="2.0" height="34" fill="#9ee6a0" opacity="0.28"/>
<polyline points="10.0,8.7 13.4,10.3 16.7,11.9 19.6,11.6 22.3,9.3 26.0,8.0 29.3,9.0 32.3,11.5 35.0,14.8 38.5,17.5 41.6,19.1 45.2,21.1 48.2,21.0 51.5,21.1 54.2,20.2 57.6,21.3 60.4,21.4 63.5,21.9 67.8,21.9 70.9,22.0 73.8,22.9 77.4,23.4 81.0,23.8 83.8,24.1 86.7,25.7 89.8,25.9 92.5,27.0 95.4,27.1 98.2,27.5 101.1,28.2 103.7,28.5 106.7,29.0 109.9,29.0 113.0,28.9 115.9,29.4 118.9,28.9 121.7,29.5 125.5,30.4 129.2,31.2 133.0,31.4 137.0,31.6 140.0,31.8 142.9,32.7 145.7,32.7 149.6,33.0 153.2,33.4 156.4,33.9 160.1,34.7 163.4,35.1 166.8,35.5 170.2,36.3 173.7,36.8 177.3,37.4 180.2,38.3 182.9,38.2 186.2,38.8 189.4,39.3 192.5,39.5 195.3,40.0 198.3,40.3 201.6,40.8 205.3,41.4 208.0,41.7 210.0,42.0" fill="none" stroke="#f4f7fb" stroke-width="2" stroke-linejoin="round" stroke-linecap="round"/>
<text x="10" y="52" fill="#9aa4b2" font-size="9">severe</text>
<text x="210" y="52" text-anchor="end" fill="#9aa4b2" font-size="9">1558-1663m</text>
</svg>
