<svg xmlns="http://www.w3.org/2000/svg" width="220" height="56" viewBox="0 0 220 56" role="img">
<title>cp.037_to_cp.038 terrain profile</title>
<rect x="0" y="0" width="220" height="56" fill="#171b20"/>
<rect x="10.0" y="8" width="3.9" height="34" fill="#9ee6a0" opacity="0.28"/>
<rect x="13.9" y="8" width="3.3" height="34" fill="#9ee6a0" opacity="0.28"/>
<rect x="17.2" y="8" width="3.4" height="34" fill="#9ee6a0" opacity="0.28"/>
<rect x="20.5" y="8" width="4.3" height="34" fill="#9ee6a0" opacity="0.28"/>
<rect x="24.9" y="8" width="3.7" height="34" fill="#9ee6a0" opacity="0.28"/>
<rect x="28.5" y="8" width="4.0" height="34" fill="#9ee6a0" opacity="0.28"/>
<rect x="32.5" y="8" width="3.8" height="34" fill="#9ee6a0" opacity="0.28"/>
<rect x="36.3" y="8" width="3.5" height="34" fill="#9ee6a0" opacity="0.28"/>
<rect x="39.8" y="8" width="2.7" height="34" fill="#e46e3f" opacity="0.28"/>
<rect x="42.5" y="8" width="3.6" height="34" fill="#9ee6a0" opacity="0.28"/>
<rect x="46.1" y="8" width="3.7" height="34" fill="#9ee6a0" opacity="0.28"/>
<rect x="49.8" y="8" width="3.6" height="34" fill="#9ee6a0" opacity="0.28"/>
<rect x="53.4" y="8" width="3.8" height="34" fill="#9ee6a0" opacity="0.28"/>
<rect x="57.1" y="8" width="3.2" height="34" fill="#9ee6a0" opacity="0.28"/>
<rect x="60.4" y="8" width="3.8" height="34" fill="#9ee6a0" opacity="0.28"/>
<rect x="64.2" y="8" width="3.7" height="34" fill="#9ee6a0" opacity="0.28"/>
<rect x="67.9" y="8" width="4.3" height="34" fill="#9ee6a0" opacity="0.28"/>
<rect x="72.1" y="8" width="3.7" height="34" fill="#9ee6a0" opacity="0.28"/>
<rect x="75.8" y="8" width="4.2" height="34" fill="#9ee6a0" opacity="0.28"/>
<rect x="80.0" y="8" width="3.5" height="34" fill="#9ee6a0" opacity="0.28"/>
<rect x="83.5" y="8" width="3.7" height="34" fill="#9ee6a0" opacity="0.28"/>
<rect x="87.1" y="8" width="3.6" height="34" fill="#9ee6a0" opacity="0.28"/>
<rect x="90.7" y="8" width="3.9" height="34" fill="#9ee6a0" opacity="0.28"/>
<rect x="94.7" y="8" width="2.7" height="34" fill="#9ee6a0" opacity="0.28"/>
<rect x="97.4" y="8" width="3.3" height="34" fill="#9ee6a0" opacity="0.28"/>
<rect x="100.6" y="8" width="3.2" height="34" fill="#9ee6a0" opacity="0.28"/>
<rect x="103.8" y="8" width="3.3" height="34" fill="#9ee6a0" opacity="0.28"/>
<rect x="107.1" y="8" width="3.4" height="34" fill="#9ee6a0" opacity="0.28"/>
<rect x="110.5" y="8" width="3.4" height="34" fill="#9ee6a0" opacity="0.28"/>
<rect x="113.9" y="8" width="2.7" height="34" fill="#9ee6a0" opacity="0.28"/>
<rect x="116.6" y="8" width="4.1" height="34" fill="#9ee6a0" opacity="0.28"/>
<rect x="120.7" y="8" width="2.9" height="34" fill="#9ee6a0" opacity="0.28"/>
<rect x="123.5" y="8" width="3.5" height="34" fill="#9ee6a0" opacity="0.28"/>
<rect x="127.0" y="8" width="3.8" height="34" fill="#9ee6a0" opacity="0.28"/>
<rect x="130.8" y="8" width="4.2" height="34" fill="#9ee6a0" opacity="0.28"/>
<rect x="135.0" y="8" width="2.9" height="34" fill="#9ee6a0" opacity="0.28"/>
<rect x="137.9" y="8" width="3.3" height="34" fill="#9ee6a0" opacity="0.28"/>
<rect x="141.1" y="8" width="2.8" height="34" fill="#9ee6a0" opacity="0.28"/>
<rect x="143.9" y="8" width="3.9" height="34" fill="#9ee6a0" opacity="0.28"/>
<rect x="147.9" y="8" width="4.2" height="34" fill="#c6e86b" opacity="0.28"/>
<rect x="152.1" y="8" width="2.7" height="34" fill="#c6e86b" opacity="0.28"/>
<rect x="154.8" y="8" width="2.9" height="34" fill="#9ee6a0" opacity="0.28"/>
<rect x="157.7" y="8" width="3.1" height="34" fill="#9ee6a0" opacity="0.28"/>
<rect x="160.8" y="8" width="3.3" height="34" fill="#9ee6a0" opacity="0.28"/>
<rect x="164.1" y="8" width="2.7" height="34" fill="#9ee6a0" opacity="0.28"/>
<rect x="166.8" y="8" width="2.8" height="34" fill="#9ee6a0" opacity="0.28"/>
<rect x="169.6" y="8" width="3.0" height="34" fill="#9ee6a0" opacity="0.28"/>
<rect x="172.7" y="8" width="3.1" height="34" fill="#9ee6a0" opacity="0.28"/>
<rect x="175.7" y="8" width="3.6" height="34" fill="#c6e86b" opacity="0.28"/>
<rect x="179.3" y="8" width="3.0" height="34" fill="#9ee6a0" opacity="0.28"/>
<rect x="182.3" y="8" width="2.8" height="34" fill="#c6e86b" opacity="0.28"/>
<rect x="185.2" y="8" width="3.5" height="34" fill="#9ee6a0" opacity="0.28"/>
<rect x="188.6" y="8" width="3.1" height="34" fill="#9ee6a0" opacity="0.28"/>
<rect x="191.8" y="8" width="3.0" height="34" fill="#9ee6a0" opacity="0.28"/>
<rect x="194.8" y="8" width="3.7" height="34" fill="#c6e86b" opacity="0.28"/>
<rect x="198.4" y="8" width="3.2" height="34" fill="#c6e86b" opacity="0.28"/>
<rect x="201.7" y="8" width="3.1" height="34" fill="#c6e86b" opacity="0.28"/>
<rect x="204.8" y="8" width="3.0" height="34" fill="#c6e86b" opacity="0.28"/>
<rect x="207.7" y="8" width="2.3" height="34" fill="#9ee6a0" opacity="0.28"/>
<polyline points="10.0,40.3 13.9,42.0 17.2,42.0 20.5,41.4 24.9,41.4 28.5,40.4 32.5,39.8 36.3,38.0 39.8,37.5 42.5,37.3 46.1,36.3 49.8,36.4 53.4,36.0 57.1,35.2 60.4,35.4 64.2,34.8 67.9,35.1 72.1,35.1 75.8,33.8 80.0,32.4 83.5,30.9 87.1,29.6 90.7,29.1 94.7,27.5 97.4,27.1 100.6,26.5 103.8,25.2 107.1,23.4 110.5,22.7 113.9,22.0 116.6,21.0 120.7,20.5 123.5,20.1 127.0,19.6 130.8,19.7 135.0,20.3 137.9,19.7 141.1,18.4 143.9,17.8 147.9,18.3 152.1,18.8 154.8,17.4 157.7,15.6 160.8,14.8 164.1,12.7 166.8,11.5 169.6,10.1 172.7,9.6 175.7,11.5 179.3,12.0 182.3,14.0 185.2,15.4 188.6,17.4 191.8,15.9 194.8,16.6 198.4,16.5 201.7,13.3 204.8,12.1 207.7,9.3 210.0,8.0" fill="none" stroke="#f4f7fb" stroke-width="2" stroke-linejoin="round" stroke-linecap="round"/>
<text x="10" y="52" fill="#9aa4b2" font-size="9">strained</text>
<text x="210" y="52" text-anchor="end" fill="#9aa4b2" font-size="9">2823-2899m</text>
</svg>
