<svg xmlns="http://www.w3.org/2000/svg" width="220" height="56" viewBox="0 0 220 56" role="img">
<title>cp.034_to_cp.035 terrain profile</title>
<rect x="0" y="0" width="220" height="56" fill="#171b20"/>
<rect x="10.0" y="8" width="2.9" height="34" fill="#9ee6a0" opacity="0.28"/>
<rect x="12.9" y="8" width="3.1" height="34" fill="#c6e86b" opacity="0.28"/>
<rect x="16.0" y="8" width="3.0" height="34" fill="#c6e86b" opacity="0.28"/>
<rect x="18.9" y="8" width="3.0" height="34" fill="#9ee6a0" opacity="0.28"/>
<rect x="22.0" y="8" width="2.8" height="34" fill="#9ee6a0" opacity="0.28"/>
<rect x="24.7" y="8" width="2.9" height="34" fill="#9ee6a0" opacity="0.28"/>
<rect x="27.6" y="8" width="2.7" height="34" fill="#f2d84b" opacity="0.28"/>
<rect x="30.3" y="8" width="2.8" height="34" fill="#9ee6a0" opacity="0.28"/>
<rect x="33.1" y="8" width="2.7" height="34" fill="#9ee6a0" opacity="0.28"/>
<rect x="35.8" y="8" width="2.8" height="34" fill="#c6e86b" opacity="0.28"/>
<rect x="38.6" y="8" width="2.7" height="34" fill="#9ee6a0" opacity="0.28"/>
<rect x="41.3" y="8" width="2.7" height="34" fill="#9ee6a0" opacity="0.28"/>
<rect x="44.1" y="8" width="2.8" height="34" fill="#9ee6a0" opacity="0.28"/>
<rect x="46.9" y="8" width="3.6" height="34" fill="#9ee6a0" opacity="0.28"/>
<rect x="50.4" y="8" width="3.0" height="34" fill="#c6e86b" opacity="0.28"/>
<rect x="53.5" y="8" width="3.5" height="34" fill="#f2d84b" opacity="0.28"/>
<rect x="57.0" y="8" width="2.7" height="34" fill="#9ee6a0" opacity="0.28"/>
<rect x="59.7" y="8" width="3.3" height="34" fill="#9ee6a0" opacity="0.28"/>
<rect x="62.9" y="8" width="3.7" height="34" fill="#c6e86b" opacity="0.28"/>
<rect x="66.6" y="8" width="3.5" height="34" fill="#c6e86b" opacity="0.28"/>
<rect x="70.1" y="8" width="3.5" height="34" fill="#9ee6a0" opacity="0.28"/>
<rect x="73.6" y="8" width="3.8" height="34" fill="#9ee6a0" opacity="0.28"/>
<rect x="77.4" y="8" width="2.9" height="34" fill="#9ee6a0" opacity="0.28"/>
<rect x="80.3" y="8" width="2.8" height="34" fill="#9ee6a0" opacity="0.28"/>
<rect x="83.1" y="8" width="3.1" height="34" fill="#9ee6a0" opacity="0.28"/>
<rect x="86.2" y="8" width="3.2" height="34" fill="#9ee6a0" opacity="0.28"/>
<rect x="89.4" y="8" width="4.1" height="34" fill="#9ee6a0" opacity="0.28"/>
<rect x="93.5" y="8" width="3.8" height="34" fill="#9ee6a0" opacity="0.28"/>
<rect x="97.3" y="8" width="3.3" height="34" fill="#9ee6a0" opacity="0.28"/>
<rect x="100.6" y="8" width="2.8" height="34" fill="#9ee6a0" opacity="0.28"/>
<rect x="103.4" y="8" width="3.0" height="34" fill="#9ee6a0" opacity="0.28"/>
<rect x="106.4" y="8" width="3.8" height="34" fill="#9ee6a0" opacity="0.28"/>
<rect x="110.2" y="8" width="3.3" height="34" fill="#9ee6a0" opacity="0.28"/>
<rect x="113.5" y="8" width="3.5" height="34" fill="#9ee6a0" opacity="0.28"/>
<rect x="117.1" y="8" width="3.2" height="34" fill="#9ee6a0" opacity="0.28"/>
<rect x="120.2" y="8" width="3.3" height="34" fill="#9ee6a0" opacity="0.28"/>
<rect x="123.5" y="8" width="4.1" height="34" fill="#9ee6a0" opacity="0.28"/>
<rect x="127.6" y="8" width="3.7" height="34" fill="#9ee6a0" opacity="0.28"/>
<rect x="131.3" y="8" width="3.3" height="34" fill="#9ee6a0" opacity="0.28"/>
<rect x="134.6" y="8" width="3.1" height="34" fill="#9ee6a0" opacity="0.28"/>
<rect x="137.7" y="8" width="3.1" height="34" fill="#9ee6a0" opacity="0.28"/>
<rect x="140.8" y="8" width="2.7" height="34" fill="#9ee6a0" opacity="0.28"/>
<rect x="143.5" y="8" width="2.7" height="34" fill="#9ee6a0" opacity="0.28"/>
<rect x="146.3" y="8" width="3.9" height="34" fill="#9ee6a0" opacity="0.28"/>
<rect x="150.1" y="8" width="3.1" height="34" fill="#9ee6a0" opacity="0.28"/>
<rect x="153.2" y="8" width="3.4" height="34" fill="#9ee6a0" opacity="0.28"/>
<rect x="156.6" y="8" width="3.2" height="34" fill="#9ee6a0" opacity="0.28"/>
<rect x="159.8" y="8" width="3.4" height="34" fill="#9ee6a0" opacity="0.28"/>
<rect x="163.2" y="8" width="3.1" height="34" fill="#c6e86b" opacity="0.28"/>
<rect x="166.3" y="8" width="3.1" height="34" fill="#9ee6a0" opacity="0.28"/>
<rect x="169.4" y="8" width="4.0" height="34" fill="#9ee6a0" opacity="0.28"/>
<rect x="173.3" y="8" width="3.5" height="34" fill="#f2d84b" opacity="0.28"/>
<rect x="176.9" y="8" width="3.0" height="34" fill="#9ee6a0" opacity="0.28"/>
<rect x="179.9" y="8" width="2.9" height="34" fill="#9ee6a0" opacity="0.28"/>
<rect x="182.7" y="8" width="2.9" height="34" fill="#9ee6a0" opacity="0.28"/>
<rect x="185.6" y="8" width="2.7" height="34" fill="#9ee6a0" opacity="0.28"/>
<rect x="188.3" y="8" width="3.9" height="34" fill="#9ee6a0" opacity="0.28"/>
<rect x="192.2" y="8" width="3.0" height="34" fill="#9ee6a0" opacity="0.28"/>
<rect x="195.2" y="8" width="3.6" height="34" fill="#9ee6a0" opacity="0.28"/>
<rect x="198.9" y="8" width="3.2" height="34" fill="#c6e86b" opacity="0.28"/>
<rect x="202.1" y="8" width="2.8" height="34" fill="#9ee6a0" opacity="0.28"/>
<rect x="204.9" y="8" width="3.4" height="34" fill="#9ee6a0" opacity="0.28"/>
<rect x="208.3" y="8" width="1.7" height="34" fill="#9ee6a0" opacity="0.28"/>
<polyline points="10.0,42.0 12.9,41.0 16.0,40.2 18.9,39.1 22.0,38.6 24.7,37.5 27.6,36.5 30.3,35.6 33.1,34.2 35.8,33.3 38.6,32.9 41.3,32.3 44.1,31.6 46.9,30.8 50.4,30.4 53.5,30.1 57.0,29.2 59.7,28.2 62.9,27.5 66.6,26.8 70.1,25.6 73.6,24.3 77.4,24.0 80.3,23.7 83.1,23.2 86.2,22.9 89.4,22.5 93.5,21.4 97.3,21.2 100.6,21.4 103.4,21.4 106.4,21.4 110.2,20.8 113.5,20.3 117.1,19.7 120.2,19.6 123.5,19.7 127.6,19.6 131.3,19.0 134.6,18.6 137.7,18.1 140.8,17.9 143.5,17.7 146.3,17.1 150.1,16.8 153.2,16.3 156.6,15.2 159.8,15.2 163.2,15.1 166.3,14.6 169.4,13.6 173.3,13.5 176.9,13.1 179.9,12.5 182.7,12.3 185.6,11.8 188.3,11.7 192.2,11.2 195.2,11.1 198.9,10.5 202.1,10.0 204.9,8.6 208.3,8.5 210.0,8.0" fill="none" stroke="#f4f7fb" stroke-width="2" stroke-linejoin="round" stroke-linecap="round"/>
<text x="10" y="52" fill="#9aa4b2" font-size="9">watch</text>
<text x="210" y="52" text-anchor="end" fill="#9aa4b2" font-size="9">2510-2638m</text>
</svg>
